<svg width="1365" height="681" viewBox="0 0 1365 681" fill="none" xmlns="http://www.w3.org/2000/svg">
  <rect width="1365" height="681" rx="24" fill="#F8FAFC"/>
  <rect x="0" y="0" width="271" height="681" fill="white"/>
  <rect x="271" y="0" width="1094" height="60" fill="white"/>
  <line x1="271" y1="60.5" x2="1365" y2="60.5" stroke="#E2E8F0"/>
  <line x1="270.5" y1="0" x2="270.5" y2="606" stroke="#E2E8F0"/>
  <text x="30" y="43" fill="#2563EB" font-family="Arial, sans-serif" font-size="24" font-weight="700">Final Year Project</text>
  <text x="64" y="68" fill="#64748B" font-family="Arial, sans-serif" font-size="15" font-weight="500">Management System</text>
  <line x1="16" y1="88.5" x2="255" y2="88.5" stroke="#E2E8F0"/>
  <rect x="16" y="106" width="239" height="42" rx="4" fill="#2F64E1"/>
  <text x="54" y="132" fill="white" font-family="Arial, sans-serif" font-size="15" font-weight="600">Dashboard</text>
  <g fill="#0F172A" font-family="Arial, sans-serif" font-size="15" font-weight="500">
    <text x="55" y="178">Manage Accounts</text>
    <text x="55" y="220">Manage Proposals</text>
    <text x="55" y="262">Manage Projects</text>
    <text x="55" y="304">Manage Presentations</text>
    <text x="55" y="352">Past FYPs</text>
    <text x="55" y="398">Profile Settings</text>
  </g>
  <g fill="#111827">
    <circle cx="38" cy="127" r="7"/>
    <circle cx="38" cy="170" r="7"/>
    <circle cx="38" cy="212" r="7"/>
    <circle cx="38" cy="254" r="7"/>
    <circle cx="38" cy="296" r="7"/>
    <circle cx="38" cy="344" r="7"/>
    <circle cx="38" cy="390" r="7"/>
  </g>
  <g fill="#111827" font-family="Arial, sans-serif" font-size="15" font-weight="500">
    <text x="300" y="36">Dashboard</text>
    <text x="1295" y="30">Admin</text>
    <text x="1295" y="49" fill="#6B7280" font-size="13">Admin</text>
  </g>
  <circle cx="1153" cy="30" r="14" fill="#F8FAFC" stroke="#E5E7EB"/>
  <circle cx="1208" cy="30" r="8" fill="#111827"/>
  <circle cx="1267" cy="30" r="14" fill="#DBEAFE"/>
  <text x="292" y="119" fill="black" font-family="Arial, sans-serif" font-size="34" font-weight="700">Welcome, Admin</text>
  <defs>
    <linearGradient id="cardGrad" x1="292" y1="163" x2="541" y2="163" gradientUnits="userSpaceOnUse">
      <stop stop-color="#6D1BF0"/>
      <stop offset="1" stop-color="#D72D82"/>
    </linearGradient>
  </defs>
  <g font-family="Arial, sans-serif" fill="white">
    <rect x="292" y="163" width="249" height="96" rx="8" fill="url(#cardGrad)"/>
    <text x="309" y="193" font-size="15" font-weight="600">Total Accounts</text>
    <text x="309" y="225" font-size="20" font-weight="700">8</text>
    <circle cx="499" cy="204" r="9" fill="white"/>
    <rect x="487" y="214" width="24" height="10" rx="5" fill="white"/>
    <rect x="559" y="163" width="249" height="96" rx="8" fill="url(#cardGrad)"/>
    <text x="576" y="193" font-size="15" font-weight="600">Active Accounts</text>
    <text x="576" y="225" font-size="20" font-weight="700">8</text>
    <circle cx="760" cy="204" r="7" fill="white"/>
    <rect x="751" y="213" width="19" height="9" rx="4.5" fill="white"/>
    <path d="M772 213L779 206" stroke="white" stroke-width="3" stroke-linecap="round"/>
    <path d="M777 209L779 206L782 208" stroke="white" stroke-width="2" stroke-linecap="round" stroke-linejoin="round"/>
    <rect x="825" y="163" width="249" height="96" rx="8" fill="url(#cardGrad)"/>
    <text x="842" y="193" font-size="15" font-weight="600">Inactive Accounts</text>
    <text x="842" y="225" font-size="20" font-weight="700">0</text>
    <circle cx="1027" cy="204" r="7" fill="white"/>
    <rect x="1018" y="213" width="19" height="9" rx="4.5" fill="white"/>
    <path d="M1039 206L1046 213" stroke="white" stroke-width="2.5" stroke-linecap="round"/>
    <path d="M1046 206L1039 213" stroke="white" stroke-width="2.5" stroke-linecap="round"/>
    <rect x="1090" y="163" width="249" height="96" rx="8" fill="url(#cardGrad)"/>
    <text x="1107" y="193" font-size="15" font-weight="600">Pending Accounts</text>
    <text x="1107" y="225" font-size="20" font-weight="700">0</text>
    <circle cx="1295" cy="204" r="7" fill="white"/>
    <rect x="1286" y="213" width="19" height="9" rx="4.5" fill="white"/>
    <circle cx="1304" cy="219" r="8" fill="white"/>
    <path d="M1304 215V219L1307 221" stroke="#D72D82" stroke-width="1.6" stroke-linecap="round"/>
    <rect x="292" y="277" width="249" height="96" rx="8" fill="url(#cardGrad)"/>
    <text x="309" y="307" font-size="15" font-weight="600">Total Proposals</text>
    <text x="309" y="339" font-size="20" font-weight="700">5</text>
    <rect x="488" y="307" width="20" height="25" rx="2" fill="white"/>
    <line x1="493" y1="314" x2="503" y2="314" stroke="#D72D82" stroke-width="2"/>
    <line x1="493" y1="319" x2="503" y2="319" stroke="#D72D82" stroke-width="2"/>
    <line x1="493" y1="324" x2="503" y2="324" stroke="#D72D82" stroke-width="2"/>
    <rect x="559" y="277" width="249" height="96" rx="8" fill="url(#cardGrad)"/>
    <text x="576" y="307" font-size="15" font-weight="600">Accepted Proposals</text>
    <text x="576" y="339" font-size="20" font-weight="700">5</text>
    <circle cx="765" cy="324" r="14" fill="white"/>
    <path d="M758 324L763 329L772 319" stroke="#D72D82" stroke-width="3" stroke-linecap="round" stroke-linejoin="round"/>
    <rect x="825" y="277" width="249" height="96" rx="8" fill="url(#cardGrad)"/>
    <text x="842" y="307" font-size="15" font-weight="600">Rejected Proposals</text>
    <text x="842" y="339" font-size="20" font-weight="700">0</text>
    <circle cx="1031" cy="324" r="14" fill="white"/>
    <path d="M1025 318L1037 330" stroke="#D72D82" stroke-width="3" stroke-linecap="round"/>
    <path d="M1037 318L1025 330" stroke="#D72D82" stroke-width="3" stroke-linecap="round"/>
    <rect x="1090" y="277" width="249" height="96" rx="8" fill="url(#cardGrad)"/>
    <text x="1107" y="307" font-size="15" font-weight="600">Pending Proposals</text>
    <text x="1107" y="339" font-size="20" font-weight="700">0</text>
    <circle cx="1297" cy="324" r="14" fill="white"/>
    <path d="M1297 316V324L1302 328" stroke="#D72D82" stroke-width="3" stroke-linecap="round"/>
    <rect x="292" y="391" width="249" height="96" rx="8" fill="url(#cardGrad)"/>
    <text x="309" y="421" font-size="15" font-weight="600">Total Projects</text>
    <text x="309" y="453" font-size="20" font-weight="700">5</text>
    <rect x="485" y="427" width="9" height="9" rx="2" fill="white"/>
    <rect x="502" y="427" width="9" height="9" rx="2" fill="white"/>
    <rect x="493" y="442" width="9" height="9" rx="2" fill="white"/>
    <path d="M494 431H502" stroke="white" stroke-width="2"/>
    <path d="M497 436V442" stroke="white" stroke-width="2"/>
    <rect x="559" y="391" width="249" height="96" rx="8" fill="url(#cardGrad)"/>
    <text x="576" y="421" font-size="15" font-weight="600">Completed Projects</text>
    <text x="576" y="453" font-size="20" font-weight="700">0</text>
    <rect x="754" y="425" width="20" height="27" rx="3" fill="white"/>
    <path d="M760 422L764 426L768 422" stroke="white" stroke-width="2.5" stroke-linecap="round"/>
    <path d="M759 438L763 442L770 434" stroke="#D72D82" stroke-width="2.5" stroke-linecap="round" stroke-linejoin="round"/>
    <rect x="825" y="391" width="249" height="96" rx="8" fill="url(#cardGrad)"/>
    <text x="842" y="421" font-size="15" font-weight="600">Initialized Projects</text>
    <text x="842" y="453" font-size="20" font-weight="700">3</text>
    <rect x="1021" y="423" width="20" height="28" rx="3" fill="white"/>
    <path d="M1026 431H1036" stroke="#D72D82" stroke-width="2"/>
    <path d="M1026 437H1036" stroke="#D72D82" stroke-width="2"/>
    <path d="M1026 443H1036" stroke="#D72D82" stroke-width="2"/>
    <path d="M1028 419H1034" stroke="white" stroke-width="2.5" stroke-linecap="round"/>
    <rect x="1090" y="391" width="249" height="96" rx="8" fill="url(#cardGrad)"/>
    <text x="1107" y="421" font-size="15" font-weight="600">Under-dev Projects</text>
    <text x="1107" y="453" font-size="20" font-weight="700">2</text>
    <circle cx="1291" cy="441" r="6" fill="white"/>
    <rect x="1283" y="449" width="16" height="8" rx="4" fill="white"/>
    <rect x="1294" y="431" width="17" height="17" rx="2" stroke="white" stroke-width="3"/>
    <rect x="292" y="505" width="249" height="96" rx="8" fill="url(#cardGrad)"/>
    <text x="309" y="535" font-size="15" font-weight="600">Total Presentations</text>
    <text x="309" y="567" font-size="20" font-weight="700">5</text>
    <rect x="489" y="536" width="19" height="24" rx="3" fill="white"/>
    <circle cx="498.5" cy="541.5" r="2" fill="#D72D82"/>
    <path d="M494 547H504" stroke="#D72D82" stroke-width="2"/>
    <path d="M494 552H504" stroke="#D72D82" stroke-width="2"/>
    <rect x="559" y="505" width="249" height="96" rx="8" fill="url(#cardGrad)"/>
    <text x="576" y="535" font-size="15" font-weight="600">Approved Presentations</text>
    <text x="576" y="567" font-size="20" font-weight="700">4</text>
    <circle cx="765" cy="552" r="14" fill="white"/>
    <path d="M758 552L763 557L772 547" stroke="#D72D82" stroke-width="3" stroke-linecap="round" stroke-linejoin="round"/>
    <rect x="825" y="505" width="249" height="96" rx="8" fill="url(#cardGrad)"/>
    <text x="842" y="535" font-size="15" font-weight="600">Reviewing Presentations</text>
    <text x="842" y="567" font-size="20" font-weight="700">1</text>
    <circle cx="1031" cy="552" r="14" fill="white"/>
    <path d="M1031 544V552L1036 556" stroke="#D72D82" stroke-width="3" stroke-linecap="round"/>
    <rect x="1090" y="505" width="249" height="96" rx="8" fill="url(#cardGrad)"/>
    <text x="1107" y="535" font-size="15" font-weight="600">Rejected Presentations</text>
    <text x="1107" y="567" font-size="20" font-weight="700">0</text>
    <circle cx="1297" cy="552" r="14" fill="white"/>
    <path d="M1291 546L1303 558" stroke="#D72D82" stroke-width="3" stroke-linecap="round"/>
    <path d="M1303 546L1291 558" stroke="#D72D82" stroke-width="3" stroke-linecap="round"/>
  </g>
</svg>
